<svg width="24" height="24" viewBox="0 0 24 24" fill="none" xmlns="http://www.w3.org/2000/svg">
<path d="M12 24C18.6274 24 24 18.6274 24 12C24 5.37258 18.6274 0 12 0C5.37258 0 0 5.37258 0 12C0 18.6274 5.37258 24 12 24Z" fill="#FFC107"/>
<path fill-rule="evenodd" clip-rule="evenodd" d="M19.1411 17.0056C19.2673 17.0054 19.3883 16.9552 19.4776 16.8659C19.5668 16.7767 19.617 16.6556 19.6172 16.5294V7.53607L12.3383 13.3162C12.2421 13.3927 12.1229 13.4344 12 13.4344C11.8771 13.4344 11.7578 13.3927 11.6616 13.3162L4.38281 7.53607V16.5294C4.38295 16.6557 4.43315 16.7767 4.52241 16.8659C4.61167 16.9552 4.73269 17.0054 4.85892 17.0056H19.1411ZM18.5495 6.99438L12 12.1954L5.45039 6.99438H18.5495Z" fill="white"/>
</svg>
