<svg width="24" height="24" viewBox="0 0 24 24" fill="none" xmlns="http://www.w3.org/2000/svg">
<g clip-path="url(#clip0_216_1652)">
<path d="M12 24C18.6274 24 24 18.6274 24 12C24 5.37258 18.6274 0 12 0C5.37258 0 0 5.37258 0 12C0 18.6274 5.37258 24 12 24Z" fill="#2196F3"/>
<path d="M18 14.481C16.7055 14.481 15.471 14.199 14.3325 13.6425C14.1529 13.5564 13.9467 13.544 13.758 13.608C13.5697 13.6738 13.415 13.8112 13.3275 13.9905L12.7875 15.108C11.1675 14.178 9.8235 12.8325 8.892 11.2125L10.011 10.6725C10.191 10.5855 10.3275 10.431 10.3935 10.242C10.458 10.053 10.446 9.846 10.359 9.6675C9.801 8.5305 9.519 7.296 9.519 6C9.519 5.586 9.183 5.25 8.769 5.25H6C5.586 5.25 5.25 5.586 5.25 6C5.25 13.0305 10.9695 18.75 18 18.75C18.414 18.75 18.75 18.414 18.75 18V15.231C18.75 14.817 18.414 14.481 18 14.481Z" fill="#FAFAFA"/>
</g>
<defs>
<clipPath id="clip0_216_1652">
<rect width="24" height="24" fill="white"/>
</clipPath>
</defs>
</svg>
